<svg width="1512" height="982" viewBox="0 0 1512 982" fill="none" xmlns="http://www.w3.org/2000/svg">
<g clip-path="url(#clip0_1_3)">
<rect width="1512" height="982" fill="#161616"/>
<path d="M774.119 438.7C763.543 429.148 747.457 429.148 736.882 438.7L675.894 493.784C671.561 497.698 668.571 502.879 667.348 508.589L650.147 588.958C647.164 602.895 655.207 616.828 668.765 621.213L746.954 646.497C752.51 648.294 758.49 648.294 764.046 646.497L842.235 621.213C855.793 616.828 863.836 602.895 860.854 588.958L843.652 508.589C842.43 502.879 839.439 497.698 835.106 493.784L774.119 438.7Z" fill="url(#paint0_radial_1_3)"/>
<path fill-rule="evenodd" clip-rule="evenodd" d="M718.263 330.482C739.414 311.378 771.586 311.378 792.737 330.482L912.884 439C921.551 446.828 927.532 457.189 929.976 468.611L963.864 626.94C969.829 654.812 953.743 682.68 926.627 691.449L772.592 741.26C761.481 744.853 749.52 744.853 738.408 741.26L584.373 691.449C557.257 682.68 541.171 654.812 547.137 626.94L581.024 468.611C583.469 457.189 589.449 446.828 598.116 439L718.263 330.482ZM875.647 480.243L755.5 371.725L635.353 480.243L601.465 638.573L755.5 688.384L909.535 638.573L875.647 480.243Z" fill="url(#paint1_radial_1_3)"/>
<path fill-rule="evenodd" clip-rule="evenodd" d="M811.355 222.264C779.629 193.609 731.371 193.609 699.645 222.264L520.338 384.216C507.338 395.958 498.367 411.499 494.7 428.632L444.126 664.922C435.178 706.73 459.307 748.531 499.981 761.685L729.862 836.023C746.529 841.413 764.471 841.413 781.139 836.023L1011.02 761.684C1051.69 748.531 1075.82 706.73 1066.87 664.922L1016.3 428.632C1012.63 411.499 1003.66 395.958 990.662 384.216L811.355 222.264ZM736.882 263.507C747.457 253.956 763.543 253.956 774.118 263.507L953.425 425.459C957.759 429.373 960.749 434.554 961.971 440.264L1012.55 676.555C1015.53 690.491 1007.48 704.424 993.927 708.809L764.046 783.147C758.49 784.944 752.51 784.944 746.954 783.147L517.074 708.809C503.516 704.425 495.472 690.491 498.455 676.555L549.029 440.264C550.251 434.554 553.242 429.373 557.575 425.459L736.882 263.507Z" fill="url(#paint2_radial_1_3)"/>
<path fill-rule="evenodd" clip-rule="evenodd" d="M681.027 100.154C723.328 61.9469 787.672 61.947 829.974 100.154L1077.82 324.014C1095.16 339.67 1107.12 360.392 1112.01 383.235L1181.91 709.85C1193.84 765.595 1161.67 821.329 1107.44 838.867L789.685 941.622C767.461 948.809 743.539 948.809 721.316 941.622L403.56 838.867C349.328 821.329 317.156 765.595 329.087 709.85L398.993 383.235C403.882 360.392 415.843 339.67 433.178 324.014L681.027 100.154ZM792.737 141.397C771.586 122.293 739.414 122.293 718.263 141.397L470.414 365.257C461.747 373.085 455.767 383.446 453.322 394.867L383.416 721.483C377.45 749.355 393.536 777.222 420.653 785.991L738.408 888.747C749.519 892.34 761.481 892.34 772.592 888.747L1090.35 785.991C1117.46 777.222 1133.55 749.355 1127.58 721.483L1057.68 394.867C1055.23 383.446 1049.25 373.085 1040.59 365.257L792.737 141.397Z" fill="url(#paint3_radial_1_3)"/>
<path fill-rule="evenodd" clip-rule="evenodd" d="M857.901 -13.5482C799.737 -66.0829 711.263 -66.0828 653.099 -13.5482L349.35 260.801C325.515 282.329 309.069 310.821 302.346 342.23L216.673 742.511C200.268 819.159 244.505 895.794 319.074 919.909L708.496 1045.84C739.053 1055.72 771.947 1055.72 802.504 1045.84L1191.93 919.909C1266.5 895.794 1310.73 819.159 1294.33 742.511L1208.65 342.23C1201.93 310.821 1185.48 282.329 1161.65 260.801L857.901 -13.5482ZM690.336 27.6948C727.349 -5.7363 783.651 -5.73633 820.664 27.6948L1124.41 302.044C1139.58 315.744 1150.05 333.875 1154.32 353.863L1240 754.143C1250.44 802.92 1222.29 851.688 1174.83 867.033L785.412 992.964C765.966 999.252 745.034 999.252 725.589 992.964L336.166 867.033C288.713 851.688 260.562 802.92 271.002 754.143L356.675 353.863C360.953 333.875 371.419 315.744 386.587 302.044L690.336 27.6948Z" fill="url(#paint4_radial_1_3)"/>
<path fill-rule="evenodd" clip-rule="evenodd" d="M615.863 -118.842C695.177 -190.481 815.823 -190.48 895.138 -118.842L1242.15 194.578C1274.65 223.934 1297.07 262.787 1306.24 305.617L1404.11 762.904C1426.49 867.425 1366.16 971.927 1264.48 1004.81L819.596 1148.68C777.927 1162.15 733.073 1162.15 691.404 1148.68L246.523 1004.81C144.837 971.927 84.5145 867.425 106.885 762.903L204.759 305.617C213.926 262.787 236.354 223.934 268.855 194.578L615.863 -118.842ZM857.901 -77.5994C799.737 -130.134 711.263 -130.134 653.099 -77.5995L306.092 235.821C282.257 257.349 265.811 285.841 259.088 317.25L161.214 774.536C144.809 851.185 189.045 927.82 263.615 951.934L708.496 1095.8C739.053 1105.68 771.947 1105.68 802.504 1095.8L1247.39 951.934C1321.95 927.82 1366.19 851.185 1349.79 774.536L1251.91 317.25C1245.19 285.841 1228.74 257.349 1204.91 235.821L857.901 -77.5994Z" fill="url(#paint5_radial_1_3)"/>
<path fill-rule="evenodd" clip-rule="evenodd" d="M569.317 -215.729C675.07 -311.246 835.93 -311.246 941.684 -215.728L1319.31 125.345C1362.64 164.486 1392.55 216.289 1404.77 273.397L1511.28 771.029C1541.11 910.391 1460.67 1049.73 1325.09 1093.57L840.961 1250.13C785.403 1268.1 725.597 1268.1 670.039 1250.13L185.906 1093.57C50.3252 1049.73 -30.1048 910.39 -0.276932 771.029L106.232 273.397C118.455 216.289 148.358 164.486 191.693 125.345L569.317 -215.729ZM904.447 -174.485C819.844 -250.899 691.156 -250.899 606.554 -174.486L228.93 166.588C194.262 197.901 170.339 239.344 160.561 285.03L54.052 782.661C30.1897 894.151 94.5337 1005.62 202.999 1040.69L687.131 1197.25C731.578 1211.63 779.422 1211.63 823.869 1197.25L1308 1040.69C1416.47 1005.62 1480.81 894.151 1456.95 782.661L1350.44 285.03C1340.66 239.344 1316.74 197.901 1282.07 166.588L904.447 -174.485Z" fill="url(#paint6_radial_1_3)"/>
<path fill-rule="evenodd" clip-rule="evenodd" d="M1006.85 -295.798C864.081 -424.747 646.919 -424.747 504.152 -295.798L121.198 50.0909C62.6947 102.931 22.3258 172.866 5.82494 249.961L-102.188 754.619C-142.456 942.757 -33.8748 1130.86 149.16 1190.05L640.127 1348.82C715.131 1373.07 795.869 1373.07 870.873 1348.82L1361.84 1190.05C1544.87 1130.86 1653.46 942.757 1613.19 754.619L1505.18 249.961C1488.67 172.866 1448.31 102.931 1389.8 50.0909L1006.85 -295.798ZM541.389 -254.555C663.005 -364.4 847.995 -364.4 969.611 -254.555L1352.57 91.3339C1402.4 136.346 1436.79 195.92 1450.85 261.594L1558.86 766.251C1593.16 926.517 1500.67 1086.75 1344.75 1137.17L853.78 1295.94C789.888 1316.6 721.112 1316.6 657.22 1295.94L166.252 1137.17C10.3336 1086.75 -82.1611 926.517 -47.8591 766.251L60.1538 261.594C74.2101 195.92 108.598 136.346 158.434 91.3339L541.389 -254.555Z" fill="url(#paint7_radial_1_3)"/>
<path fill-rule="evenodd" clip-rule="evenodd" d="M420.37 -359.051C610.726 -530.983 900.274 -530.983 1090.63 -359.051L1453.63 -31.184C1531.64 39.2699 1585.46 132.516 1607.46 235.31L1709.85 713.674C1763.54 964.524 1618.76 1215.33 1374.72 1294.25L909.33 1444.75C809.325 1477.08 701.675 1477.08 601.67 1444.75L136.282 1294.25C-107.763 1215.33 -252.538 964.524 -198.848 713.674L-96.4624 235.309C-74.4613 132.516 -20.6361 39.2699 57.3678 -31.184L420.37 -359.051ZM1053.39 -317.808C884.188 -470.636 626.812 -470.636 457.607 -317.808L94.6044 10.0591C25.2677 72.6848 -22.5769 155.57 -42.1335 246.942L-144.519 725.306C-192.243 948.285 -63.5549 1171.22 153.375 1241.37L618.762 1391.87C707.655 1420.62 803.345 1420.62 892.238 1391.87L1357.63 1241.37C1574.55 1171.22 1703.24 948.285 1655.52 725.306L1553.13 246.942C1533.58 155.57 1485.73 72.6848 1416.4 10.0591L1053.39 -317.808Z" fill="url(#paint8_radial_1_3)"/>
</g>
<defs>
<radialGradient id="paint0_radial_1_3" cx="0" cy="0" r="1" gradientUnits="userSpaceOnUse" gradientTransform="translate(755.5 490.5) rotate(90) scale(978.5 965.5)">
<stop stop-color="#222222"/>
<stop offset="0.588542" stop-color="#222222" stop-opacity="0"/>
</radialGradient>
<radialGradient id="paint1_radial_1_3" cx="0" cy="0" r="1" gradientUnits="userSpaceOnUse" gradientTransform="translate(755.5 490.5) rotate(90) scale(978.5 965.5)">
<stop stop-color="#222222"/>
<stop offset="0.588542" stop-color="#222222" stop-opacity="0"/>
</radialGradient>
<radialGradient id="paint2_radial_1_3" cx="0" cy="0" r="1" gradientUnits="userSpaceOnUse" gradientTransform="translate(755.5 490.5) rotate(90) scale(978.5 965.5)">
<stop stop-color="#222222"/>
<stop offset="0.588542" stop-color="#222222" stop-opacity="0"/>
</radialGradient>
<radialGradient id="paint3_radial_1_3" cx="0" cy="0" r="1" gradientUnits="userSpaceOnUse" gradientTransform="translate(755.5 490.5) rotate(90) scale(978.5 965.5)">
<stop stop-color="#222222"/>
<stop offset="0.588542" stop-color="#222222" stop-opacity="0"/>
</radialGradient>
<radialGradient id="paint4_radial_1_3" cx="0" cy="0" r="1" gradientUnits="userSpaceOnUse" gradientTransform="translate(755.5 490.5) rotate(90) scale(978.5 965.5)">
<stop stop-color="#222222"/>
<stop offset="0.588542" stop-color="#222222" stop-opacity="0"/>
</radialGradient>
<radialGradient id="paint5_radial_1_3" cx="0" cy="0" r="1" gradientUnits="userSpaceOnUse" gradientTransform="translate(755.5 490.5) rotate(90) scale(978.5 965.5)">
<stop stop-color="#222222"/>
<stop offset="0.588542" stop-color="#222222" stop-opacity="0"/>
</radialGradient>
<radialGradient id="paint6_radial_1_3" cx="0" cy="0" r="1" gradientUnits="userSpaceOnUse" gradientTransform="translate(755.5 490.5) rotate(90) scale(978.5 965.5)">
<stop stop-color="#222222"/>
<stop offset="0.588542" stop-color="#222222" stop-opacity="0"/>
</radialGradient>
<radialGradient id="paint7_radial_1_3" cx="0" cy="0" r="1" gradientUnits="userSpaceOnUse" gradientTransform="translate(755.5 490.5) rotate(90) scale(978.5 965.5)">
<stop stop-color="#222222"/>
<stop offset="0.588542" stop-color="#222222" stop-opacity="0"/>
</radialGradient>
<radialGradient id="paint8_radial_1_3" cx="0" cy="0" r="1" gradientUnits="userSpaceOnUse" gradientTransform="translate(755.5 490.5) rotate(90) scale(978.5 965.5)">
<stop stop-color="#222222"/>
<stop offset="0.588542" stop-color="#222222" stop-opacity="0"/>
</radialGradient>
<clipPath id="clip0_1_3">
<rect width="1512" height="982" fill="white"/>
</clipPath>
</defs>
</svg>
